<?xml version="1.0" encoding="UTF-8"?>
<svg width="14px" height="17px" viewBox="0 0 14 17" version="1.1" xmlns="http://www.w3.org/2000/svg" xmlns:xlink="http://www.w3.org/1999/xlink">
    <!-- Generator: Sketch 49 (51002) - http://www.bohemiancoding.com/sketch -->
    <title>apple</title>
    <desc>Created with Sketch.</desc>
    <defs></defs>
    <g id="Page-1" stroke="none" stroke-width="1" fill="none" fill-rule="evenodd">
        <g id="1" transform="translate(-1128.000000, -34.000000)" fill="#FFFFFF">
            <g id="Menu" transform="translate(1128.000000, 34.000000)">
                <g id="iPhone">
                    <path d="M11.6932078,9.04056635 C11.7161408,11.6147322 13.97302,12.4656796 14,12.4743423 C13.98651,12.5343151 13.6465617,13.7037847 12.8000633,14.8885807 C12.0931867,15.9334401 11.3525849,16.9549768 10.1762558,16.9723023 C9.03365172,16.9989568 8.64918635,16.3086033 7.33863158,16.3086033 C6.01593581,16.3086033 5.60651391,16.9549768 4.51045036,16.9989568 C3.39010478,17.0396051 2.53416345,15.8847955 1.80165575,14.8492652 C0.337314838,12.7362235 -0.80259126,8.89463254 0.725827212,6.28048484 C1.46642893,4.99839966 2.81677923,4.17277412 4.26021062,4.15078409 C5.3819052,4.1281277 6.4226597,4.89911136 7.11199936,4.89911136 C7.78784902,4.89911136 9.07479626,3.97686297 10.401539,4.11480041 C10.9566531,4.13079316 12.5363336,4.33136886 13.5555041,5.79936972 C13.473215,5.84801432 11.6736473,6.89287376 11.6932078,9.04056635 Z M9.5348057,2.72476419 C8.91966111,3.44177233 7.93556466,3.99019026 6.97709923,3.91955563 C6.85164211,2.95199447 7.33728258,1.92312777 7.88093011,1.29541247 C8.4954002,0.583068884 9.56246023,0.0373164086 10.4157035,-3.55271368e-15 C10.5276707,1.00554394 10.1243193,1.99642786 9.5348057,2.72476419 Z" id="apple"></path>
                </g>
            </g>
        </g>
    </g>
</svg>