<?xml version="1.0" encoding="UTF-8"?>
<svg width="56px" height="58px" viewBox="0 0 56 58" version="1.1" xmlns="http://www.w3.org/2000/svg" xmlns:xlink="http://www.w3.org/1999/xlink">
    <!-- Generator: Sketch 49 (51002) - http://www.bohemiancoding.com/sketch -->
    <title>Combined Shape</title>
    <desc>Created with Sketch.</desc>
    <defs>
        <linearGradient x1="50%" y1="84.2165596%" x2="50%" y2="20.5066229%" id="linearGradient-1">
            <stop stop-color="#C8C8C8" offset="0%"></stop>
            <stop stop-color="#C8C8C8" offset="20.4061703%"></stop>
            <stop stop-color="#FFFFFF" offset="27.5589923%"></stop>
            <stop stop-color="#FFFFFF" offset="43.365354%"></stop>
            <stop stop-color="#C8C8C8" offset="52.5589923%"></stop>
            <stop stop-color="#C8C8C8" offset="69.395727%"></stop>
            <stop stop-color="#FFFFFF" offset="79.0896046%"></stop>
            <stop stop-color="#FFFFFF" offset="100%"></stop>
        </linearGradient>
        <path d="M27.7866605,4.16343006 L24.9640959,6.53184296 L22.2620749,2.20770549 C21.8829648,1.55465229 21.3837873,1.25544786 23.2405257,0.408534192 C25.0972641,-0.438379477 25.2729988,0.140730522 25.9029163,1.14880914 L27.7866605,4.16343006 Z M33.5440668,13.3772061 L44.1519787,30.3534139 C45.203806,32.0900894 45.2529497,32.4322201 43.9719243,33.5760033 C42.6908989,34.7197866 42.3275541,34.3366238 41.6042092,33.1615908 L30.7031595,15.7162646 C30.8712462,15.604784 31.03481,15.4827226 31.1929779,15.350004 L33.5440668,13.3772061 Z M1.339685,18.6903412 L6.74204477,15.1820077 C8.10439678,14.297286 9.92600997,14.6844818 10.8107317,16.0468338 C11.6954534,17.4091858 11.3082576,19.230799 9.9459056,20.1155208 L4.54354584,23.6238542 C3.18119383,24.5085759 1.35958064,24.1213801 0.474858898,22.7590281 C-0.409862841,21.3966761 -0.0226670046,19.5750629 1.339685,18.6903412 Z M5.70704394,25.6379807 L12.6937955,21.1007312 C14.0960923,20.190069 15.9711159,20.5886176 16.8817781,21.9909144 C17.7924402,23.3932111 17.3938917,25.2682348 15.9915949,26.178897 L9.00484333,30.7161465 C7.60254658,31.6268086 5.72752292,31.22826 4.81686076,29.8259633 C3.90619861,28.4236665 4.30474719,26.5486429 5.70704394,25.6379807 Z M10.280466,32.345422 L16.4973092,28.3081568 C17.8639525,27.4206483 19.6913036,27.8090637 20.5788121,29.1757071 C21.4663207,30.5423504 21.0779052,32.3697015 19.7112619,33.25721 L13.4944187,37.2944752 C12.1277754,38.1819837 10.3004243,37.7935683 9.41291576,36.426925 C8.52540722,35.0602816 8.91382269,33.2329305 10.280466,32.345422 Z M14.7331607,39.1373273 L17.2147879,37.4634487 C18.5657339,36.5522241 20.3995855,36.9086887 21.3108101,38.2596347 C22.2220347,39.6105807 21.86557,41.4444323 20.514624,42.3556569 L18.0329969,44.0295356 C16.6820509,44.9407602 14.8481993,44.5842955 13.9369747,43.2333495 C13.0257501,41.8824035 13.3822147,40.0485519 14.7331607,39.1373273 Z M2.79492454,14.8988126 C1.32491096,13.232119 2.26842278,12.7538735 2.83567196,12.266684 C9.14394555,7.45268168 16.5580401,3.63268608 17.2269476,3.72204061 C18.2094379,3.87809014 22.0500695,9.76933014 21.4030493,10.4321705 C20.2097764,12.9513933 20.46316,15.171426 22.0500695,17.1767934 C23.6081619,19.145745 26.5497968,17.7773806 27.1951545,18.9043048 C28.8946853,21.5883796 38.8014618,35.9581135 38.2109587,37.3394644 C38.2109587,38.801946 31.6335567,42.2753332 24.7729964,45.9163685 C23.5531121,46.5637852 22.8821985,47.0379747 22.0500695,45.9163685 C21.8359609,45.487943 21.5760242,45.3442026 21.9363224,44.128317 C22.4313604,42.7896354 24.4925045,42.9380199 24.5569821,39.4208142 C24.5833252,37.9838193 22.0500695,37.424002 22.2317108,34.1103923 C22.5042825,31.8673406 23.1882175,29.3546569 22.3226412,28.1005165 C21.5531766,27.2729354 20.8077958,27.1920236 19.869722,26.1376529 C18.9316481,25.0832821 20.0273342,21.7388052 18.8621365,20.387879 C17.3621215,18.687176 15.5267628,19.1420737 14.6073634,18.0329858 C13.7197566,17.1767934 13.575875,15.2569687 12.1000394,13.5727784 C10.9341615,12.2423048 9.65972972,11.8726676 9.32393642,12.0036581 C6.19895379,12.9972902 3.35945701,15.6103024 2.79492454,14.8988126 Z M33.5065279,8.03871916 C32.5006011,9.77292224 27.043287,16.1558149 26.6229741,16.351659 C25.7913572,16.8808072 24.2336869,16.4499672 23.5164039,15.8063343 C22.7370183,15.107667 22.3509638,12.7419929 23.0346978,11.6367416 C24.5323838,9.88626935 30.519113,3.36973638 31.501888,2.58286314 C32.3153155,1.96289406 36.6712388,-1.27474404 44.27637,6.81070156 C47.218023,10.4967465 49.4429875,12.7793547 49.9670299,18.9942506 C50.3389438,23.4049746 47.4710912,27.3737253 46.0630393,27.8493687 C43.9751349,26.0566119 35.1738892,10.8432351 33.5065279,8.03871916 Z M32.2465582,39.1068967 C33.6389169,39.1068967 34.7676467,37.978167 34.7676467,36.5858082 C34.7676467,35.1934495 33.6389169,34.0647197 32.2465582,34.0647197 C30.8541995,34.0647197 29.7254697,35.1934495 29.7254697,36.5858082 C29.7254697,37.978167 30.8541995,39.1068967 32.2465582,39.1068967 Z M32.2446652,35.1571812 L33.7302309,36.6427468 L32.2446652,38.1283125 L30.7590996,36.6427468 L32.2446652,35.1571812 Z" id="path-2"></path>
        <filter x="-22.0%" y="-25.8%" width="144.0%" height="147.2%" filterUnits="objectBoundingBox" id="filter-3">
            <feOffset dx="0" dy="0" in="SourceAlpha" result="shadowOffsetOuter1"></feOffset>
            <feGaussianBlur stdDeviation="1" in="shadowOffsetOuter1" result="shadowBlurOuter1"></feGaussianBlur>
            <feColorMatrix values="0 0 0 0 0   0 0 0 0 0   0 0 0 0 0  0 0 0 1 0" type="matrix" in="shadowBlurOuter1" result="shadowMatrixOuter1"></feColorMatrix>
            <feOffset dx="0" dy="-3" in="SourceAlpha" result="shadowOffsetOuter2"></feOffset>
            <feGaussianBlur stdDeviation="1.5" in="shadowOffsetOuter2" result="shadowBlurOuter2"></feGaussianBlur>
            <feColorMatrix values="0 0 0 0 1   0 0 0 0 1   0 0 0 0 1  0 0 0 0.302932518 0" type="matrix" in="shadowBlurOuter2" result="shadowMatrixOuter2"></feColorMatrix>
            <feOffset dx="0" dy="2" in="SourceAlpha" result="shadowOffsetOuter3"></feOffset>
            <feGaussianBlur stdDeviation="1.5" in="shadowOffsetOuter3" result="shadowBlurOuter3"></feGaussianBlur>
            <feColorMatrix values="0 0 0 0 0   0 0 0 0 0   0 0 0 0 0  0 0 0 0.8 0" type="matrix" in="shadowBlurOuter3" result="shadowMatrixOuter3"></feColorMatrix>
            <feMerge>
                <feMergeNode in="shadowMatrixOuter1"></feMergeNode>
                <feMergeNode in="shadowMatrixOuter2"></feMergeNode>
                <feMergeNode in="shadowMatrixOuter3"></feMergeNode>
            </feMerge>
        </filter>
    </defs>
    <g id="Page-1" stroke="none" stroke-width="1" fill="none" fill-rule="evenodd">
        <g id="1" transform="translate(-56.000000, -19.000000)">
            <g id="Group" transform="translate(59.000000, 25.000000)">
                <g id="Combined-Shape">
                    <use fill="black" fill-opacity="1" filter="url(#filter-3)" xlink:href="#path-2"></use>
                    <use fill="url(#linearGradient-1)" fill-rule="evenodd" xlink:href="#path-2"></use>
                </g>
            </g>
        </g>
    </g>
</svg>